# xmcd CD database file
#
# Track frame offsets:
#	150
#	15940
#	29855
#	41500
#	61525
#
# Disc length: 1061 seconds
#
# Revision: 0
# Processed by: cddbd v1.4PL0 Copyright (c) Steve Scherf et al.
# Submitted via: CDex 1.40Release
#
DISCID=32042305
DTITLE=Dusty Duhon - Frozen in the Moment
DYEAR=2002
DGENRE=Country
TTITLE0=Heart Open Wide
TTITLE1=No Ordinary Love
TTITLE2=Frozen in the Moment
TTITLE3=I'm Going 'Round
TTITLE4=Make it Through the Night
EXTD=YEAR: 2002 ID3G: 2
EXTT0=
EXTT1=
EXTT2=
EXTT3=
EXTT4=
PLAYORDER=
